<svg width="41" height="40" viewBox="0 0 41 40" fill="none" xmlns="http://www.w3.org/2000/svg">
<path fill-rule="evenodd" clip-rule="evenodd" d="M20.75 39C31.2434 39 39.75 30.4934 39.75 20C39.75 9.50659 31.2434 1 20.75 1C10.2566 1 1.75 9.50659 1.75 20C1.75 30.4934 10.2566 39 20.75 39ZM20.75 40C31.7957 40 40.75 31.0457 40.75 20C40.75 8.9543 31.7957 0 20.75 0C9.7043 0 0.75 8.9543 0.75 20C0.75 31.0457 9.7043 40 20.75 40Z" fill="#222222"/>
<path fill-rule="evenodd" clip-rule="evenodd" d="M25.7501 20.7137H15.75V19.2852H25.7501V20.7137Z" fill="#222222"/>
<path fill-rule="evenodd" clip-rule="evenodd" d="M25.7501 16.4286H15.75V15H25.7501V16.4286Z" fill="#222222"/>
<path fill-rule="evenodd" clip-rule="evenodd" d="M25.7501 25.0008H15.75V23.5723H25.7501V25.0008Z" fill="#222222"/>
</svg>
