<svg width="200" height="58" viewBox="0 0 200 58" fill="none" xmlns="http://www.w3.org/2000/svg">
<path d="M28.6147 0.00114001C12.9229 -0.139997 0.0359176 12.8417 7.55539e-05 28.932C-0.0357665 44.9633 12.6853 57.9795 28.3167 58.0004C43.953 58.0242 56.7064 45.0403 56.712 29.0155C56.7176 13.0059 44.0394 0.139396 28.6147 0.00114001ZM28.6498 54.8889C14.715 55.0574 3.12396 43.6268 3.02205 29.0083C3.10147 14.7326 14.2504 3.22208 28.3069 3.08815C42.7097 3.18464 53.5186 15.0264 53.6725 28.6836C53.832 42.8232 42.7519 54.7175 28.6491 54.8882L28.6498 54.8889Z" fill="#222222"/>
<path d="M53.6725 28.6836C53.5186 15.0264 42.7097 3.18464 28.3069 3.08815C14.2505 3.22136 3.1016 14.7317 3.02148 29.0074C3.12339 43.6258 14.7143 55.0567 28.6491 54.8882C42.7519 54.7175 53.832 42.8232 53.6725 28.6836Z" fill="white"/>
<path d="M28.7019 52.2794C24.8654 52.2657 21.5159 51.5147 18.3527 49.9254C16.9323 49.2118 15.6012 48.3528 14.3496 47.3634C13.9286 47.0307 13.9033 46.9342 14.0917 46.4179C14.7565 44.5968 15.649 42.9075 16.862 41.4039C18.6317 39.2098 20.8623 37.7207 23.4991 36.853C24.6587 36.4713 25.8457 36.1948 27.0574 36.0962C31.9768 35.6973 36.1493 37.316 39.5086 41.0388C40.7371 42.3998 41.7041 43.9394 42.3387 45.6863C42.4336 45.947 42.546 46.2004 42.6479 46.4582C42.8363 46.9356 42.8201 47.0314 42.4055 47.3497C41.9128 47.7277 41.416 48.1036 40.9022 48.4507C38.7348 49.9125 36.3917 50.9652 33.8708 51.6025C32.0675 52.0583 30.2396 52.3003 28.7019 52.2794Z" fill="#222222"/>
<path d="M51.1454 29.0327C51.1377 29.8924 51.0484 30.9279 50.9339 31.962C50.8959 32.3011 50.7828 32.6108 50.5888 32.888C49.4742 34.4772 48.1298 35.8087 46.4494 36.7657C45.3299 37.4029 44.133 37.8177 42.8778 38.0524C42.5243 38.1187 42.1652 38.1569 41.7963 38.1057C41.3479 38.0438 40.9571 37.8739 40.624 37.5707C40.449 37.4116 40.2825 37.2351 40.1426 37.0429C39.1074 35.6178 38.2823 34.0805 37.7967 32.3645C37.5683 31.5587 37.4074 30.7414 37.3575 29.9054C37.2921 28.8181 37.5402 27.8049 38.108 26.8803C38.5037 26.2358 38.8776 25.5784 39.2058 24.895C39.9318 23.385 40.4188 21.7994 40.6458 20.1317C40.9227 18.0938 40.7238 16.092 40.1848 14.1218C40.0288 13.5515 39.8242 12.9949 39.6261 12.4376C39.2894 11.4914 38.8417 10.6035 38.276 9.77757C37.9851 9.352 37.7117 8.91347 37.4214 8.4879C37.3357 8.36188 37.2809 8.23371 37.2626 8.08177C37.238 7.87871 37.3638 7.76853 37.5549 7.77789C37.6597 7.78294 37.7679 7.82542 37.8642 7.87367C38.432 8.1617 39.0111 8.43101 39.56 8.75361C42.3135 10.3731 44.6861 12.4433 46.6012 15.0479C48.3687 17.4508 49.5768 20.131 50.3555 23.0221C50.8692 24.9296 51.1391 26.8717 51.1461 29.0334L51.1454 29.0327Z" fill="#222222"/>
<path d="M19.4147 7.87458C19.4765 8.07549 19.4611 8.26631 19.336 8.44561C19.2622 8.55146 19.1975 8.6638 19.1202 8.76605C18.0049 10.2365 17.2501 11.8955 16.6865 13.6518C16.1327 15.3793 15.872 17.1543 15.9788 18.9733C16.0898 20.8649 16.5529 22.6702 17.3183 24.3948C17.6788 25.207 18.078 25.9991 18.5573 26.7437C19.3514 27.9772 19.5138 29.3288 19.2959 30.7503C18.9537 32.9768 18.0878 34.9779 16.7771 36.781C16.6148 37.0042 16.4461 37.2245 16.2627 37.4291C15.7897 37.9562 15.1952 38.1628 14.5015 38.1189C13.4017 38.049 12.3552 37.7624 11.358 37.298C9.601 36.4793 8.06752 35.348 6.81867 33.8293C6.79548 33.8013 6.77088 33.7732 6.74839 33.7444C5.92122 32.647 5.81369 32.3589 5.70898 31.0059C5.68438 30.6912 5.65627 30.3765 5.62745 30.0619C5.52063 28.909 5.58318 27.7619 5.72654 26.6162C5.9177 25.0853 6.20444 23.5753 6.63876 22.0963C8.10407 17.1104 10.9525 13.1499 15.0912 10.1479C16.2177 9.3306 17.4033 8.61339 18.6353 7.97755C18.9804 7.79897 18.9825 7.80257 19.4154 7.87386L19.4147 7.87458Z" fill="#222222"/>
<path d="M7.64371 37.8458C7.80886 37.8335 7.91428 37.8479 8.00986 37.9135C8.17501 38.028 8.34298 38.1381 8.50673 38.2541C9.97977 39.2924 11.6039 39.9362 13.3707 40.2062C13.6033 40.2415 13.8381 40.2696 14.0707 40.3034C14.1424 40.3135 14.214 40.3279 14.2829 40.3502C14.5296 40.4309 14.6006 40.58 14.5001 40.8176C14.4572 40.9191 14.4017 41.0163 14.3483 41.1128C13.708 42.2772 13.0671 43.4401 12.4276 44.6045C12.1802 45.0553 12.0143 45.2187 11.5392 44.6945C10.7219 43.7937 9.99453 42.8223 9.33531 41.7969C8.7267 40.8507 8.19469 39.8584 7.71118 38.8395C7.60857 38.6235 7.49191 38.4111 7.46872 38.1648C7.45325 37.9992 7.55937 37.8508 7.64371 37.8458Z" fill="#222222"/>
<path d="M44.7577 45.0339C44.6283 45.0318 44.5419 45.0001 44.4892 44.9187C44.4295 44.8265 44.3782 44.7279 44.3346 44.6264C43.7941 43.3655 43.1518 42.1644 42.3534 41.0533C42.2796 40.951 42.2234 40.8308 42.1798 40.7113C42.1215 40.5514 42.1932 40.4088 42.3492 40.3599C42.4518 40.3274 42.5601 40.3073 42.6669 40.2965C44.7858 40.0877 46.7205 39.369 48.4578 38.1031C48.5611 38.0282 48.6637 37.9504 48.7741 37.8878C48.9146 37.8086 49.1051 37.8237 49.1824 37.9087C49.278 38.0145 49.2941 38.1449 49.2548 38.273C49.2119 38.4142 49.1501 38.5488 49.0903 38.6835C48.7832 39.3762 48.429 40.0452 48.0558 40.7026C47.2701 42.0866 46.3649 43.3828 45.31 44.5673C45.2004 44.6904 45.088 44.8121 44.965 44.9209C44.8996 44.9785 44.809 45.0058 44.7563 45.0332L44.7577 45.0339Z" fill="#222222"/>
<path d="M23.8871 32.1436C23.8513 31.2219 24.6138 30.3506 25.649 30.3614C26.4874 30.3701 27.3687 31.0736 27.3701 32.1444C27.3715 33.0978 26.6695 33.9309 25.5949 33.9179C24.4437 33.9035 23.8443 32.9458 23.8871 32.1436Z" fill="#222222"/>
<path d="M32.8534 32.1381C32.8836 33.0433 32.1921 33.934 31.0936 33.9175C30.1336 33.9023 29.383 33.2255 29.3746 32.1468C29.3647 30.9601 30.3346 30.3689 31.0859 30.3595C32.0663 30.3473 32.8752 31.1538 32.8534 32.1381Z" fill="#222222"/>
<path d="M199.996 16.3513C199.986 16.1014 199.892 15.884 199.755 15.6816C199.318 15.0285 198.133 14.7974 197.513 15.5268C197.281 15.7997 197.134 16.1115 197.032 16.4528C196.852 17.0563 196.669 17.6583 196.488 18.261C196.164 19.3425 195.835 20.4227 195.521 21.5071C195.435 21.806 195.296 22.0493 195.036 22.2157C194.932 22.2819 194.799 22.2466 194.774 22.1286C194.728 21.9111 194.681 21.6915 194.666 21.4711C194.59 20.3406 194.519 19.2101 194.456 18.0788C194.332 15.8537 194.215 13.6279 194.096 11.4022C194.08 11.1019 194.021 10.8131 193.888 10.5438C193.642 10.0455 193.232 9.80646 192.699 9.81654C192.312 9.82374 191.955 9.96055 191.637 10.1967C191.34 10.4178 191.166 10.708 191.146 11.0846C191.133 11.3251 191.125 11.5678 191.135 11.8083C191.182 12.8848 191.229 13.9606 191.288 15.0364C191.336 15.9265 191.406 16.815 191.456 17.7051C191.517 18.7622 191.567 19.8192 191.621 20.877C191.632 21.0996 191.643 21.3235 191.557 21.5352C191.545 21.5647 191.509 21.5964 191.479 21.6029C191.452 21.6087 191.406 21.5921 191.389 21.569C191.267 21.4013 191.225 21.1982 191.169 21.0038C190.909 20.0958 190.657 19.1856 190.398 18.2783C189.676 15.75 188.945 13.2247 188.232 10.6943C188.058 10.0794 187.668 9.67036 187.162 9.3492C187.022 9.26135 186.868 9.21166 186.698 9.21094C186.096 9.20878 185.532 9.65524 185.371 10.2486C185.244 10.7138 185.29 11.1689 185.412 11.6232C185.528 12.0524 185.647 12.4801 185.767 12.9079C186.378 15.0825 186.989 17.2572 187.601 19.4311C187.63 19.5341 187.691 19.6327 187.634 19.7436C187.618 19.7552 187.602 19.7753 187.588 19.7746C187.481 19.7674 187.371 19.7667 187.266 19.7444C186.237 19.5298 185.209 19.5471 184.191 19.7991C182.403 20.2419 180.995 21.2515 179.977 22.8242C179.787 23.1187 179.639 23.4334 179.581 23.792C179.46 24.5437 179.867 25.0679 180.331 25.3243C180.872 25.6224 181.486 25.5641 181.95 25.145C182.111 24.9988 182.248 24.8217 182.386 24.651C182.537 24.466 182.667 24.2622 182.823 24.0829C183.474 23.3354 184.281 22.8407 185.249 22.7125C186.788 22.508 188.077 23.0423 189.047 24.2867C189.992 25.4993 190.245 27.2945 189.257 28.8095C188.706 29.6527 187.973 30.2677 187.034 30.6076C186.01 30.9784 185.001 30.933 184.021 30.4549C183.35 30.128 182.82 29.6297 182.426 28.9838C182.281 28.7476 182.139 28.51 181.935 28.3191C181.591 27.9965 181.186 27.8554 180.731 27.9548C179.822 28.1528 179.282 28.8909 179.562 29.9105C179.625 30.1402 179.73 30.3613 179.837 30.5744C181.026 32.9313 182.834 34.5508 185.316 35.345C186.597 35.7555 187.906 35.8267 189.241 35.6561C191.01 35.43 192.48 34.6393 193.702 33.3316C194.18 32.8204 194.605 32.2666 194.993 31.6805C195.979 30.1906 196.648 28.5524 197.147 26.8365C198.066 23.6724 198.977 20.5055 199.898 17.3421C199.994 17.0138 200.008 16.6862 199.996 16.3513Z" fill="#222222"/>
<path d="M162.572 34.9908C162.576 32.5749 162.575 30.159 162.575 27.7432C162.575 27.5761 162.572 27.4083 162.58 27.2413C162.586 27.1131 162.656 27.054 162.795 27.0461C162.867 27.0418 162.939 27.0432 163.012 27.0432C165.97 27.0432 168.928 27.0425 171.887 27.0432C172.298 27.0432 172.298 27.0483 172.303 27.4818C172.305 27.5934 172.303 27.705 172.303 27.8166C172.303 30.2512 172.303 32.6858 172.305 35.1197C172.305 35.281 172.266 35.4509 172.358 35.6101C172.414 35.6202 172.465 35.6382 172.516 35.6382C173.659 35.6396 174.802 35.6396 175.945 35.6396C176.019 35.6396 176.089 35.6295 176.164 35.5309V16.8382C176.164 16.5033 176.164 16.1692 176.164 15.8344C176.164 15.7415 176.166 15.6479 176.159 15.5557C176.152 15.4542 176.101 15.3836 175.994 15.3735C175.94 15.3685 175.885 15.3678 175.831 15.3678C174.743 15.3678 173.653 15.3678 172.565 15.3692C172.495 15.3692 172.426 15.3879 172.363 15.3966C172.26 15.5888 172.305 15.7775 172.305 15.9582C172.302 18.3187 172.303 20.6784 172.303 23.0388C172.303 23.1872 172.305 23.3362 172.301 23.4846C172.297 23.6243 172.236 23.6905 172.107 23.6977C171.998 23.7035 171.889 23.7013 171.78 23.7013C168.877 23.7013 165.973 23.7013 163.07 23.7013C162.961 23.7013 162.852 23.6992 162.744 23.6948C162.632 23.6905 162.585 23.6142 162.58 23.5134C162.573 23.3463 162.575 23.1792 162.575 23.0115C162.575 20.6885 162.575 18.3655 162.575 16.0425C162.575 15.8754 162.575 15.7084 162.567 15.5413C162.562 15.434 162.494 15.3778 162.391 15.3706C162.337 15.367 162.282 15.3678 162.228 15.3678C161.158 15.3678 160.087 15.3678 159.016 15.3678C158.927 15.3678 158.834 15.3555 158.732 15.4441C158.672 15.6148 158.706 15.82 158.706 16.0187C158.704 22.3375 158.704 28.6555 158.704 34.9743C158.704 35.0859 158.702 35.1975 158.704 35.3091C158.707 35.4171 158.682 35.5338 158.782 35.6166C159.546 35.6699 162.136 35.6526 162.529 35.5914C162.615 35.3984 162.572 35.191 162.573 34.9901L162.572 34.9908Z" fill="#222222"/>
<path d="M155.374 25.1119C156.214 24.1686 156.63 23.0381 156.706 21.7772C156.802 20.219 156.467 18.786 155.436 17.5849C154.716 16.7445 153.83 16.149 152.8 15.7767C151.97 15.4765 151.11 15.3692 150.235 15.3685C147.605 15.3663 144.974 15.3663 142.344 15.3685C141.606 15.3685 141.689 15.2777 141.688 16.059C141.686 22.4123 141.687 28.7656 141.687 35.119C141.687 35.2673 141.684 35.4164 141.689 35.5647C141.696 35.7692 141.74 35.8138 141.958 35.8138C142.973 35.8153 143.99 35.8138 145.005 35.811C145.039 35.811 145.074 35.7944 145.145 35.7764C145.226 35.5726 145.191 35.3854 145.192 35.2032C145.195 32.7693 145.193 30.3362 145.194 27.9023C145.194 27.7539 145.191 27.6049 145.198 27.4565C145.202 27.3543 145.25 27.2801 145.361 27.2765C145.506 27.2722 145.652 27.27 145.796 27.27C147.32 27.27 148.844 27.265 150.368 27.2722C151.007 27.2751 151.635 27.2009 152.251 27.0338C153.474 26.7033 154.521 26.0668 155.375 25.1098L155.374 25.1119ZM153.21 21.4582C153.164 22.5499 152.551 23.3398 151.54 23.6955C151.211 23.8107 150.873 23.8784 150.527 23.8791C148.858 23.8827 147.189 23.8806 145.521 23.8806C145.484 23.8806 145.449 23.8813 145.412 23.8791C145.271 23.8705 145.207 23.8136 145.197 23.6862C145.193 23.6307 145.193 23.5746 145.193 23.5191C145.193 22.0336 145.193 20.5473 145.194 19.0618C145.194 18.9905 145.206 18.9185 145.219 18.7809H145.587C147.22 18.7809 148.851 18.7838 150.484 18.7795C150.925 18.7781 151.355 18.8458 151.757 19.0251C152.83 19.5032 153.258 20.3226 153.21 21.4582Z" fill="#222222"/>
<path d="M133.55 19.9381C132.968 18.5389 132.389 17.1391 131.805 15.7407C131.645 15.3569 131.682 15.367 131.247 15.3677C130.322 15.3684 129.396 15.3662 128.471 15.3684C127.932 15.3698 128.005 15.3079 127.775 15.8631C125.901 20.3665 124.026 24.8699 122.153 29.3741C121.33 31.3529 120.508 33.3331 119.689 35.314C119.627 35.4624 119.511 35.5978 119.552 35.7763C119.589 35.7907 119.62 35.8123 119.651 35.8123C120.684 35.8152 121.718 35.8131 122.753 35.8195C122.944 35.821 123.101 35.7562 123.26 35.6568C124.08 35.1455 124.907 34.6444 125.729 34.1367C128.275 32.5669 130.819 30.995 133.365 29.4259C133.47 29.3618 133.562 29.2524 133.73 29.2948C133.782 29.4151 133.843 29.5483 133.9 29.683C134.434 30.9618 134.967 32.2407 135.501 33.5196C135.793 34.2188 136.087 34.9166 136.374 35.6179C136.432 35.7591 136.52 35.8167 136.663 35.8167C137.787 35.8152 138.911 35.8159 140.062 35.8159C140.109 35.5776 139.994 35.4386 139.934 35.2924C137.809 30.1726 135.679 25.0557 133.55 19.9381ZM132.234 25.9853C132.169 26.048 132.088 26.0941 132.012 26.1452C129.866 27.599 127.721 29.0529 125.575 30.5053C125.49 30.5629 125.399 30.6104 125.305 30.6659C125.29 30.6025 125.266 30.5636 125.275 30.5348C125.39 30.1546 129.606 20.2131 129.77 19.928C129.882 19.9323 129.897 20.0389 129.926 20.1087C130.698 21.9478 131.464 23.7891 132.232 25.6296C132.253 25.6807 132.264 25.7362 132.287 25.7866C132.323 25.8694 132.285 25.9364 132.235 25.9846L132.234 25.9853Z" fill="#222222"/>
<path d="M104.587 35.7622C104.587 35.562 104.587 35.3784 104.587 35.1948C104.587 33.0576 104.587 30.9211 104.59 28.7839C104.59 28.6665 104.533 28.5253 104.658 28.4397C104.69 28.4397 104.708 28.4375 104.724 28.4397C104.742 28.4425 104.76 28.4497 104.776 28.4562C104.793 28.4627 104.809 28.4706 104.826 28.4785C104.843 28.4865 104.86 28.4929 104.875 28.5016C104.908 28.5189 104.939 28.5376 104.971 28.5549C108.98 30.7943 112.988 33.0338 116.997 35.2733C117.188 35.3798 117.38 35.4843 117.571 35.5901C117.603 35.6074 117.637 35.6225 117.668 35.6405C117.701 35.6578 117.731 35.678 117.763 35.6945C117.779 35.7024 117.797 35.7075 117.814 35.7111C117.832 35.7147 117.85 35.7197 117.867 35.7168C117.885 35.714 117.9 35.7017 117.946 35.6801C117.949 35.6275 117.957 35.5584 117.957 35.4893C117.958 34.3746 117.957 33.2592 117.957 32.1445C117.957 32.089 117.956 32.0329 117.956 31.9774C117.956 31.8529 117.895 31.7693 117.789 31.7153C117.708 31.6743 117.629 31.6282 117.549 31.585C115.48 30.471 113.411 29.3578 111.342 28.2438C109.867 27.4495 108.391 26.656 106.916 25.8589C106.781 25.7854 106.62 25.7386 106.528 25.5982C106.632 25.4441 106.773 25.4002 106.897 25.3332C109.766 23.7857 112.636 22.2397 115.506 20.693C116.243 20.2955 116.979 19.8937 117.72 19.5027C117.883 19.4163 117.961 19.3133 117.96 19.1153C117.952 17.9077 117.956 16.7008 117.956 15.4025C117.306 15.7114 116.767 16.0448 116.211 16.3458C115.666 16.6411 115.129 16.9507 114.589 17.2531C114.032 17.5642 113.475 17.8746 112.918 18.1856C112.377 18.4881 111.837 18.7912 111.295 19.0929C110.739 19.404 110.182 19.7144 109.625 20.0247C109.068 20.3351 108.51 20.644 107.953 20.9551C107.413 21.2575 106.877 21.57 106.332 21.8631C105.775 22.1627 105.241 22.5083 104.621 22.7841C104.559 22.4687 104.594 22.1944 104.588 21.9243C104.582 21.6644 104.587 21.4037 104.587 21.1437V17.0184C104.587 16.7584 104.592 16.4978 104.585 16.2378C104.578 15.9642 104.618 15.6869 104.556 15.4162C104.483 15.396 104.431 15.3694 104.381 15.3694C103.329 15.3687 102.276 15.3694 101.224 15.3737C101.191 15.3737 101.159 15.4025 101.104 15.4284C101.049 15.6113 101.074 15.8158 101.074 16.016C101.073 22.3902 101.073 28.7637 101.073 35.1379C101.073 35.2682 101.071 35.3978 101.074 35.5282C101.076 35.6182 101.061 35.7161 101.199 35.8148H102.286C102.667 35.8148 103.049 35.8227 103.43 35.8126C103.804 35.8025 104.184 35.8616 104.587 35.76V35.7622Z" fill="#222222"/>
<path d="M80.885 34.6756C80.885 34.8801 80.8829 35.0846 80.8857 35.2891C80.8872 35.3985 80.8647 35.5145 80.9525 35.6066C80.9855 35.6174 81.02 35.6347 81.0551 35.6376C81.1275 35.6434 81.1999 35.6419 81.273 35.6419C83.5233 35.6398 85.7736 35.6376 88.0239 35.6354C88.0408 35.6354 88.0584 35.6261 88.0752 35.6196C88.0921 35.6131 88.1076 35.6045 88.1539 35.5836C89.9348 29.9806 91.7009 24.3495 93.4881 18.73C93.8093 18.6709 94.0995 18.7005 94.3877 18.699C94.524 18.6983 94.5908 18.7653 94.5964 18.8978C94.6027 19.0648 94.6006 19.2319 94.6006 19.3997C94.6006 22.3549 94.6006 25.3101 94.6006 28.2646C94.6006 30.5509 94.5992 32.8365 94.6027 35.1227C94.6027 35.284 94.5556 35.4576 94.6674 35.6117C94.718 35.6218 94.7707 35.6405 94.8234 35.6405C95.8396 35.6426 96.8558 35.6419 97.8721 35.6426C97.9466 35.6426 98.0154 35.6311 98.0892 35.5339V34.9578C98.0892 28.6571 98.0892 22.3571 98.0892 16.0563C98.0892 15.926 98.0906 15.7964 98.0885 15.666C98.0878 15.6106 98.0906 15.5508 98.0702 15.5026C98.0513 15.4565 98.0105 15.4032 97.9683 15.3888C97.9023 15.3665 97.8257 15.3708 97.754 15.3708C95.5943 15.3701 93.4347 15.3693 91.275 15.3708C90.9897 15.3708 90.963 15.3946 90.8779 15.6444C90.8597 15.697 90.8512 15.7524 90.8344 15.8057C89.1027 21.1977 87.3703 26.5897 85.6387 31.9817C85.5993 32.1049 85.56 32.2287 85.5143 32.3497C85.4784 32.4447 85.4033 32.4959 85.3042 32.4937C85.0167 32.4894 84.7272 32.5189 84.4411 32.4699C84.3308 32.2453 84.3779 32.0184 84.3779 31.8003C84.3751 26.5775 84.3758 21.3554 84.3758 16.1326C84.3758 15.9656 84.3793 15.7978 84.3737 15.6307C84.3716 15.5602 84.3491 15.4903 84.3392 15.4349C84.1867 15.3348 84.0377 15.3722 83.8958 15.3715C83.1157 15.3679 82.3349 15.3679 81.5548 15.3701C80.8028 15.3722 80.8886 15.2901 80.8886 16.0541C80.8872 22.2613 80.8878 28.4691 80.8878 34.6763L80.885 34.6756Z" fill="#222222"/>
<path d="M73.9211 27.28C74.4524 27.28 74.4236 27.2599 74.4236 27.7942C74.4236 30.2648 74.4222 32.7354 74.425 35.206C74.425 35.3882 74.3906 35.5754 74.477 35.7994C74.5754 35.8066 74.6464 35.8159 74.7174 35.8159C75.6605 35.8167 76.6036 35.8167 77.5475 35.8159C77.6199 35.8159 77.6922 35.8138 77.7646 35.808C77.8455 35.8015 77.9031 35.7555 77.908 35.6726C77.9178 35.5063 77.9206 35.3392 77.9206 35.1722C77.9206 28.7814 77.9206 22.3914 77.9206 16.0006C77.9206 15.8343 77.9185 15.6665 77.9038 15.5009C77.8996 15.4577 77.849 15.4051 77.8068 15.3842C77.7611 15.3619 77.7007 15.3677 77.6466 15.3677C76.631 15.3677 75.6148 15.3691 74.5993 15.3734C74.5494 15.3734 74.5002 15.4073 74.4236 15.4354C74.4236 15.6183 74.4236 15.8026 74.4236 15.9869C74.4236 18.4021 74.4236 20.8173 74.4236 23.2317C74.4236 23.3988 74.4236 23.5658 74.4173 23.7329C74.4138 23.8416 74.3484 23.8956 74.2444 23.9021C74.2085 23.9043 74.172 23.9057 74.1355 23.9057C72.4305 23.9057 70.7248 23.9216 69.0199 23.8992C67.679 23.882 66.4603 22.8659 66.3809 21.2544C66.3697 21.0319 66.376 20.8086 66.376 20.5854C66.376 18.9875 66.376 17.3904 66.3753 15.7925C66.3753 15.4152 66.3711 15.4109 66.0253 15.4094C65.0822 15.4073 64.139 15.408 63.1952 15.4094C63.108 15.4094 63.0209 15.4195 62.9317 15.4246C62.8572 15.5628 62.8789 15.6946 62.8789 15.8206C62.8775 17.6223 62.8789 19.4246 62.8775 21.2263C62.8775 21.5986 62.9113 21.9673 62.9689 22.3352C63.262 24.2017 64.2177 25.5907 65.8342 26.4959C66.8082 27.041 67.8603 27.2808 68.9686 27.2786C70.6194 27.2757 72.2703 27.2786 73.9211 27.2772V27.28Z" fill="#222222"/>
<path d="M65.5337 42.0669V41.4072H69.478V42.0669H67.8921V46.5H67.1265V42.0669H65.5337Z" fill="black"/>
<path d="M70.0454 46.5V41.4072H73.2412V42.0669H70.8145V43.6016H73.0703V44.2578H70.8145V45.8403H73.2651V46.5H70.0454Z" fill="black"/>
<path d="M73.9692 46.5V41.4072H75.7876C76.1818 41.4072 76.5088 41.4801 76.7686 41.626C77.0283 41.7695 77.2231 41.9666 77.353 42.2173C77.4829 42.4657 77.5479 42.7459 77.5479 43.0581C77.5479 43.3703 77.4829 43.6517 77.353 43.9023C77.2231 44.1507 77.0272 44.3478 76.7651 44.4937C76.5054 44.6372 76.1772 44.709 75.7808 44.709H74.5366V44.0596H75.709C75.9619 44.0596 76.1659 44.0163 76.3208 43.9297C76.478 43.8431 76.592 43.7246 76.6626 43.5742C76.7355 43.4215 76.772 43.2495 76.772 43.0581C76.772 42.8644 76.7355 42.6935 76.6626 42.5454C76.592 42.395 76.478 42.2777 76.3208 42.1934C76.1636 42.109 75.9585 42.0669 75.7056 42.0669H74.7383V46.5H73.9692Z" fill="black"/>
<path d="M78.146 46.5V41.4072H79.9644C80.3586 41.4072 80.6855 41.4801 80.9453 41.626C81.2051 41.7695 81.3999 41.9666 81.5298 42.2173C81.6597 42.4657 81.7246 42.7459 81.7246 43.0581C81.7246 43.3703 81.6597 43.6517 81.5298 43.9023C81.3999 44.1507 81.2039 44.3478 80.9419 44.4937C80.6821 44.6372 80.354 44.709 79.9575 44.709H78.7134V44.0596H79.8857C80.1387 44.0596 80.3426 44.0163 80.4976 43.9297C80.6548 43.8431 80.7687 43.7246 80.8394 43.5742C80.9123 43.4215 80.9487 43.2495 80.9487 43.0581C80.9487 42.8644 80.9123 42.6935 80.8394 42.5454C80.7687 42.395 80.6548 42.2777 80.4976 42.1934C80.3403 42.109 80.1353 42.0669 79.8823 42.0669H78.915V46.5H78.146Z" fill="black"/>
<path d="M82.3228 41.4072H83.0918V45.1465H83.1362L85.7305 41.4072H86.4414V46.5H85.6724V42.7676H85.6211L83.0405 46.5H82.3228V41.4072Z" fill="black"/>
<path d="M87.0122 42.0669V41.4072H90.9565V42.0669H89.3706V46.5H88.605V42.0669H87.0122Z" fill="black"/>
<path d="M93.438 46.5684C93.0005 46.5684 92.6086 46.4635 92.2622 46.2539C91.9159 46.0443 91.6424 45.7446 91.4419 45.355C91.2414 44.9631 91.1411 44.4971 91.1411 43.957C91.1411 43.4124 91.2414 42.9453 91.4419 42.5557C91.6424 42.1637 91.9159 41.863 92.2622 41.6533C92.6086 41.4437 93.0005 41.3389 93.438 41.3389C93.88 41.3389 94.2731 41.4437 94.6172 41.6533C94.9613 41.863 95.2324 42.1637 95.4307 42.5557C95.6312 42.9453 95.7314 43.4124 95.7314 43.957C95.7314 44.4993 95.6312 44.9653 95.4307 45.355C95.2324 45.7446 94.9613 46.0443 94.6172 46.2539C94.2731 46.4635 93.88 46.5684 93.438 46.5684ZM93.438 45.8677C93.7319 45.8677 93.994 45.7948 94.2241 45.6489C94.4543 45.5031 94.6354 45.2878 94.7676 45.0029C94.902 44.7181 94.9692 44.3695 94.9692 43.957C94.9692 43.5423 94.902 43.1925 94.7676 42.9077C94.6354 42.6206 94.4543 42.4041 94.2241 42.2583C93.994 42.1125 93.7319 42.0396 93.438 42.0396C93.1463 42.0396 92.8843 42.1125 92.6519 42.2583C92.4217 42.4041 92.2394 42.6206 92.105 42.9077C91.9705 43.1925 91.9033 43.5423 91.9033 43.957C91.9033 44.3695 91.9705 44.7181 92.105 45.0029C92.2394 45.2878 92.4217 45.5031 92.6519 45.6489C92.8843 45.7948 93.1463 45.8677 93.438 45.8677Z" fill="black"/>
<path d="M96.3911 46.5V41.4072H98.2095C98.6037 41.4072 98.9307 41.4801 99.1904 41.626C99.4502 41.7695 99.645 41.9666 99.7749 42.2173C99.9048 42.4657 99.9697 42.7459 99.9697 43.0581C99.9697 43.3703 99.9048 43.6517 99.7749 43.9023C99.645 44.1507 99.4491 44.3478 99.187 44.4937C98.9272 44.6372 98.5991 44.709 98.2026 44.709H96.9585V44.0596H98.1309C98.3838 44.0596 98.5877 44.0163 98.7427 43.9297C98.8999 43.8431 99.0138 43.7246 99.0845 43.5742C99.1574 43.4215 99.1938 43.2495 99.1938 43.0581C99.1938 42.8644 99.1574 42.6935 99.0845 42.5454C99.0138 42.395 98.8999 42.2777 98.7427 42.1934C98.5854 42.109 98.3804 42.0669 98.1274 42.0669H97.1602V46.5H96.3911Z" fill="black"/>
<path d="M100.568 41.4072H101.337V45.1465H101.381L103.976 41.4072H104.687V46.5H103.917V42.7676H103.866L101.286 46.5H100.568V41.4072Z" fill="black"/>
<path d="M109.113 46.5H108.344V42.0669H107.383C107.13 42.0669 106.925 42.1056 106.768 42.1831C106.611 42.2583 106.496 42.3665 106.423 42.5078C106.35 42.6468 106.312 42.8132 106.31 43.0068C106.312 43.1982 106.349 43.3612 106.419 43.4956C106.492 43.63 106.606 43.7337 106.761 43.8066C106.918 43.8773 107.122 43.9137 107.373 43.916H108.679V44.5723H107.301C106.907 44.5723 106.579 44.5073 106.317 44.3774C106.057 44.2476 105.862 44.0641 105.732 43.8271C105.605 43.5902 105.54 43.3167 105.538 43.0068C105.54 42.6924 105.605 42.4155 105.732 42.1763C105.862 41.937 106.057 41.749 106.317 41.6123C106.579 41.4756 106.907 41.4072 107.301 41.4072H109.113V46.5ZM106.604 44.1997H107.455L106.214 46.5H105.346L106.604 44.1997Z" fill="black"/>
<path d="M111.492 46.5V41.4072H113.361C113.721 41.4072 114.02 41.4665 114.257 41.585C114.494 41.7035 114.67 41.8641 114.787 42.0669C114.905 42.2674 114.964 42.493 114.964 42.7437C114.964 42.9556 114.924 43.1344 114.845 43.2803C114.767 43.4261 114.664 43.5423 114.534 43.6289C114.404 43.7155 114.26 43.7793 114.103 43.8203V43.8682C114.274 43.8773 114.44 43.932 114.602 44.0322C114.764 44.1325 114.897 44.2749 115.002 44.4595C115.109 44.6418 115.163 44.8651 115.163 45.1294C115.163 45.3892 115.101 45.6227 114.978 45.8301C114.857 46.0352 114.67 46.1981 114.417 46.3188C114.165 46.4396 113.84 46.5 113.443 46.5H111.492ZM112.261 45.8438H113.368C113.737 45.8438 114.002 45.772 114.161 45.6284C114.321 45.4849 114.4 45.306 114.4 45.0918C114.4 44.93 114.359 44.783 114.277 44.6509C114.198 44.5164 114.083 44.4093 113.932 44.3296C113.782 44.2498 113.604 44.21 113.399 44.21H112.261V45.8438ZM112.261 43.6118H113.293C113.464 43.6118 113.619 43.5788 113.758 43.5127C113.897 43.4466 114.006 43.3532 114.086 43.2324C114.168 43.1094 114.209 42.967 114.209 42.8052C114.209 42.5955 114.135 42.4201 113.987 42.2788C113.841 42.1353 113.617 42.0635 113.313 42.0635H112.261V43.6118Z" fill="black"/>
<path d="M118.799 46.5L116.964 44.2168H116.547V46.5H115.778V41.4072H116.547V43.5571H116.96L118.724 41.4072H119.657L117.624 43.8818L119.739 46.5H118.799Z" fill="black"/>
<path d="M120.522 46.5684V45.895H120.826C121.018 45.895 121.161 45.8483 121.257 45.7549C121.355 45.6592 121.431 45.5441 121.486 45.4097L121.561 45.2285L119.767 41.4072H120.587L121.92 44.3535L123.106 41.4072H123.909L122.156 45.6147C122.081 45.7834 121.994 45.9406 121.896 46.0864C121.798 46.23 121.668 46.3462 121.506 46.4351C121.347 46.5239 121.134 46.5684 120.867 46.5684H120.522Z" fill="black"/>
<path d="M126.209 46.5684C125.772 46.5684 125.38 46.4635 125.034 46.2539C124.687 46.0443 124.415 45.7446 124.217 45.355C124.019 44.9631 123.919 44.4971 123.919 43.957C123.919 43.4124 124.019 42.9453 124.217 42.5557C124.417 42.1637 124.69 41.863 125.034 41.6533C125.38 41.4437 125.772 41.3389 126.209 41.3389C126.478 41.3389 126.73 41.3776 126.965 41.4551C127.202 41.5326 127.414 41.6453 127.601 41.7935C127.787 41.9416 127.941 42.1227 128.062 42.3369C128.185 42.5511 128.267 42.7938 128.308 43.0649H127.536C127.506 42.8986 127.45 42.7528 127.368 42.6274C127.288 42.4998 127.189 42.3927 127.071 42.3062C126.955 42.2173 126.824 42.1512 126.678 42.1079C126.534 42.0623 126.382 42.0396 126.22 42.0396C125.928 42.0396 125.665 42.1136 125.43 42.2617C125.198 42.4076 125.014 42.624 124.88 42.9111C124.748 43.196 124.682 43.5446 124.682 43.957C124.682 44.3717 124.749 44.7215 124.883 45.0063C125.018 45.2889 125.201 45.5031 125.434 45.6489C125.666 45.7948 125.927 45.8677 126.216 45.8677C126.378 45.8677 126.531 45.846 126.674 45.8027C126.818 45.7594 126.949 45.6945 127.067 45.6079C127.186 45.5213 127.285 45.4165 127.365 45.2935C127.447 45.1681 127.504 45.0234 127.536 44.8594H128.308C128.269 45.1123 128.191 45.3436 128.072 45.5532C127.954 45.7606 127.802 45.9406 127.618 46.0933C127.433 46.2437 127.222 46.361 126.985 46.4453C126.748 46.5273 126.49 46.5684 126.209 46.5684Z" fill="black"/>
<path d="M128.937 46.5V41.4072H129.706V43.6221H132.242V41.4072H133.011V46.5H132.242V44.2817H129.706V46.5H128.937Z" fill="black"/>
<path d="M134.368 43.4614H135.739C136.117 43.4614 136.438 43.5229 136.703 43.646C136.967 43.7668 137.17 43.9399 137.311 44.1655C137.452 44.3888 137.523 44.652 137.523 44.9551C137.523 45.2604 137.452 45.5293 137.311 45.7617C137.17 45.9919 136.967 46.173 136.703 46.3052C136.438 46.4351 136.117 46.5 135.739 46.5H133.832V41.4072H134.601V45.8506H135.739C135.96 45.8506 136.146 45.8084 136.296 45.7241C136.449 45.6398 136.564 45.5282 136.641 45.3892C136.721 45.2502 136.761 45.1032 136.761 44.9482C136.761 44.7181 136.673 44.521 136.498 44.3569C136.322 44.1929 136.069 44.1108 135.739 44.1108H134.368V43.4614ZM138.76 41.4072V46.5H137.991V41.4072H138.76Z" fill="black"/>
<path d="M140.117 41.4072L141.334 43.3999H141.375L142.595 41.4072H143.484L141.898 43.957L143.494 46.5H142.599L141.375 44.5347H141.334L140.11 46.5H139.218L140.842 43.957L139.229 41.4072H140.117Z" fill="black"/>
<path d="M145.507 46.5V41.4072H147.377C147.737 41.4072 148.035 41.4665 148.272 41.585C148.509 41.7035 148.686 41.8641 148.802 42.0669C148.921 42.2674 148.98 42.493 148.98 42.7437C148.98 42.9556 148.94 43.1344 148.86 43.2803C148.783 43.4261 148.679 43.5423 148.549 43.6289C148.419 43.7155 148.276 43.7793 148.119 43.8203V43.8682C148.29 43.8773 148.456 43.932 148.618 44.0322C148.779 44.1325 148.913 44.2749 149.018 44.4595C149.125 44.6418 149.178 44.8651 149.178 45.1294C149.178 45.3892 149.117 45.6227 148.994 45.8301C148.873 46.0352 148.686 46.1981 148.433 46.3188C148.18 46.4396 147.855 46.5 147.459 46.5H145.507ZM146.276 45.8438H147.384C147.753 45.8438 148.017 45.772 148.177 45.6284C148.336 45.4849 148.416 45.306 148.416 45.0918C148.416 44.93 148.375 44.783 148.293 44.6509C148.213 44.5164 148.098 44.4093 147.948 44.3296C147.797 44.2498 147.62 44.21 147.415 44.21H146.276V45.8438ZM146.276 43.6118H147.309C147.479 43.6118 147.634 43.5788 147.773 43.5127C147.912 43.4466 148.022 43.3532 148.102 43.2324C148.184 43.1094 148.225 42.967 148.225 42.8052C148.225 42.5955 148.151 42.4201 148.002 42.2788C147.857 42.1353 147.632 42.0635 147.329 42.0635H146.276V43.6118Z" fill="black"/>
<path d="M153.775 41.4072V46.5H153.01V42.0635H150.614V46.5H149.848V41.4072H153.775Z" fill="black"/>
<path d="M154.654 46.5V41.4072H157.85V42.0669H155.423V43.6016H157.679V44.2578H155.423V45.8403H157.874V46.5H154.654Z" fill="black"/>
<path d="M158.677 41.4072H159.442V43.0889C159.44 43.4398 159.529 43.6825 159.709 43.8169C159.891 43.9491 160.149 44.0151 160.481 44.0151C160.598 44.0151 160.716 44.0106 160.837 44.0015C160.96 43.9924 161.082 43.9798 161.203 43.9639C161.326 43.9456 161.443 43.9251 161.555 43.9023C161.669 43.8773 161.775 43.8499 161.873 43.8203V44.4697C161.775 44.5016 161.672 44.5301 161.565 44.5552C161.46 44.5802 161.35 44.6019 161.233 44.6201C161.117 44.6361 160.996 44.6486 160.871 44.6577C160.746 44.6646 160.616 44.668 160.481 44.668C160.11 44.668 159.79 44.6156 159.521 44.5107C159.252 44.4059 159.045 44.2373 158.899 44.0049C158.753 43.7725 158.679 43.4671 158.677 43.0889V41.4072ZM161.756 41.4072H162.519V46.5H161.756V41.4072Z" fill="black"/>
<path d="M163.776 46.5H162.959L164.792 41.4072H165.68L167.509 46.5H166.695L165.253 42.3335H165.212L163.776 46.5ZM163.913 44.5073H166.555V45.1499H163.913V44.5073Z" fill="black"/>
<path d="M167.082 42.0669V41.4072H171.026V42.0669H169.44V46.5H168.674V42.0669H167.082Z" fill="black"/>
<path d="M171.21 46.5V45.8335L171.357 45.8301C171.56 45.8232 171.72 45.7537 171.836 45.6216C171.952 45.4894 172.038 45.2764 172.092 44.9824C172.147 44.6862 172.183 44.2931 172.202 43.8032L172.287 41.4072H175.507V46.5H174.748V42.0601H173.012L172.93 44.0049C172.909 44.5495 172.854 45.0075 172.766 45.3789C172.679 45.748 172.531 46.0272 172.321 46.2163C172.112 46.4054 171.814 46.5 171.429 46.5H171.21Z" fill="black"/>
<path d="M176.331 46.5V41.4072H179.526V42.0669H177.1V43.6016H179.355V44.2578H177.1V45.8403H179.55V46.5H176.331Z" fill="black"/>
<path d="M180.254 46.5V41.4072H181.023V43.6221H183.56V41.4072H184.329V46.5H183.56V44.2817H181.023V46.5H180.254Z" fill="black"/>
<path d="M185.149 41.4072H185.918V45.1465H185.962L188.557 41.4072H189.268V46.5H188.499V42.7676H188.447L185.867 46.5H185.149V41.4072Z" fill="black"/>
<path d="M190.091 41.4072H190.86V45.1465H190.905L193.499 41.4072H194.21V46.5H193.441V42.7676H193.39L190.809 46.5H190.091V41.4072ZM192.152 40.9629C191.826 40.9629 191.562 40.874 191.359 40.6963C191.157 40.5163 191.055 40.2827 191.055 39.9956H191.667C191.667 40.1414 191.711 40.2599 191.8 40.3511C191.889 40.4399 192.007 40.4844 192.152 40.4844C192.298 40.4844 192.416 40.4399 192.504 40.3511C192.593 40.2599 192.638 40.1414 192.638 39.9956H193.25C193.25 40.2827 193.148 40.5163 192.945 40.6963C192.743 40.874 192.478 40.9629 192.152 40.9629Z" fill="black"/>
</svg>
