<svg width="119" height="24" viewBox="0 0 119 24" fill="none" xmlns="http://www.w3.org/2000/svg">
<path d="M27.863 5.62897H24.9334C24.3791 5.62897 24.0228 5.94391 24.0228 6.49505V15.9432C24.0228 16.455 24.3395 16.7699 24.8542 16.7699C25.3689 16.7699 25.6856 16.455 25.6856 15.9432V12.597H27.9818C30.1989 12.597 31.3866 10.7861 31.3866 9.05394C31.4262 7.1643 29.8821 5.62897 27.863 5.62897ZM29.7238 9.0933C29.7238 9.88065 29.1299 10.9436 28.0214 10.9436H25.7252V7.2824H27.9818C29.1299 7.32177 29.7238 8.22722 29.7238 9.0933Z" fill="white" fill-opacity="0.75"/>
<path d="M39.4217 15.1559H35.1459V6.45569C35.1459 5.94391 34.8292 5.62897 34.3145 5.62897C33.7999 5.62897 33.4831 5.94391 33.4831 6.45569V15.6677C33.4831 16.3763 33.8394 16.7699 34.5125 16.7699H39.4613C39.9759 16.7699 40.2927 16.455 40.2927 15.9432C40.2531 15.4708 39.9363 15.1559 39.4217 15.1559Z" fill="white" fill-opacity="0.75"/>
<path d="M60.091 14.25C59.8535 14.25 59.6951 14.3287 59.4972 14.4862C58.9825 14.998 57.9532 15.3917 57.0426 15.3917C54.7463 15.3917 53.5586 13.3052 53.5586 11.2187C53.5586 9.25035 54.6276 7.16388 57.003 7.16388C57.7948 7.16388 58.9033 7.43945 59.4576 7.99059C59.6159 8.14806 59.9327 8.26616 60.1306 8.26616C60.6057 8.26616 60.962 7.87249 60.962 7.40008C60.962 7.12451 60.8432 6.84894 60.6057 6.6521C59.6159 5.74665 58.1115 5.39234 57.0822 5.39234C53.5982 5.39234 51.8167 8.38427 51.8167 11.2975C51.8167 14.0925 53.4399 17.0845 57.003 17.0845C58.3095 17.0845 59.6951 16.6121 60.5661 15.8247C60.764 15.6279 60.8828 15.3917 60.8828 15.0767C60.9224 14.5649 60.5661 14.25 60.091 14.25Z" fill="white" fill-opacity="0.75"/>
<path d="M69.3132 15.1563H64.6812V11.8495H68.4818C68.9965 11.8495 69.3132 11.5345 69.3132 11.0621C69.3132 10.5503 68.9965 10.196 68.4818 10.196H64.6812V7.32221H69.1945C69.7091 7.32221 70.0259 7.00727 70.0259 6.49549C70.0259 5.98372 69.7091 5.66878 69.1945 5.66878H63.929C63.3747 5.66878 63.0184 6.02309 63.0184 6.6136V15.8649C63.0184 16.4948 63.1768 16.8098 63.929 16.8098H69.3132C69.9071 16.8098 70.2238 16.4948 70.2238 15.983C70.2238 15.7468 70.1446 15.1563 69.3132 15.1563Z" fill="white" fill-opacity="0.75"/>
<path d="M77.3928 10.8248C77.1553 10.7067 76.9177 10.5886 76.7198 10.5099L76.2843 10.2737C75.2945 9.7619 74.384 9.28949 74.384 8.65961C74.384 7.79353 75.1758 7.20302 75.928 7.20302C75.928 7.20302 75.928 7.20302 75.9676 7.20302C76.9573 7.20302 77.67 7.59669 78.145 7.951L78.2242 7.99037C78.4222 8.10847 78.6201 8.26594 78.8577 8.26594C79.2931 8.26594 79.689 7.87226 79.689 7.39985C79.689 7.00618 79.4119 6.73061 79.1744 6.4944C78.9368 6.33693 77.7491 5.47085 76.2051 5.47085C74.1068 5.47085 72.6024 6.80934 72.6024 8.73835C72.6024 10.3918 74.2652 11.2579 75.8092 12.0058C76.0468 12.1239 76.2843 12.242 76.5218 12.3601C77.5512 12.7932 78.145 13.1475 78.1846 14.0136C78.2242 15.1552 76.0468 16.0607 73.9881 14.8403C73.7505 14.7222 73.513 14.6041 73.315 14.6041C72.8004 14.6041 72.5232 14.919 72.5232 15.3914C72.5232 15.6276 72.6024 15.982 73.0775 16.2575C73.8693 16.7693 74.7799 17.0055 75.73 17.0055C78.4618 17.0055 79.9662 15.9032 79.9662 13.8955C79.9266 12.0452 78.5805 11.376 77.3928 10.8248Z" fill="white" fill-opacity="0.75"/>
<path d="M89.5438 5.70637H82.4175C81.8633 5.70637 81.5466 6.02131 81.5466 6.53309C81.5466 7.04487 81.8633 7.3598 82.4175 7.3598H85.1097V15.9813C85.1097 16.5324 85.4264 16.8867 85.9807 16.8867C86.4953 16.8867 86.812 16.5324 86.812 15.9813V7.3598H89.5438C90.0584 7.3598 90.4147 7.04487 90.4147 6.53309C90.4147 6.02131 90.098 5.70637 89.5438 5.70637Z" fill="white" fill-opacity="0.75"/>
<path d="M99.3642 15.6668L95.9991 6.5729C95.8011 6.02175 95.4052 5.74618 94.8905 5.74618C94.3759 5.74618 93.98 6.06112 93.782 6.5729L90.5356 15.7061C90.496 15.8242 90.4565 15.9423 90.4565 16.0998C90.4565 16.5722 90.7732 16.8872 91.2087 16.8872C91.4462 16.8872 91.9213 16.8084 92.1588 16.1392L92.9902 13.8165H96.8304L97.8598 16.336C97.9786 16.6903 98.2953 16.8872 98.6516 16.8872C99.1266 16.8872 99.4434 16.5722 99.4434 16.0998C99.4434 15.9817 99.4038 15.8242 99.3642 15.6668ZM96.2366 12.1631H93.4653L94.851 8.3838L96.2366 12.1631Z" fill="white" fill-opacity="0.75"/>
<path d="M106.65 12.2807C108.075 11.7296 108.709 10.273 108.709 9.13134C108.709 7.47791 107.442 5.70637 105.146 5.70637H102.454C101.662 5.70637 101.345 6.10005 101.345 6.96613V15.9025C101.345 16.7686 101.939 16.8473 102.177 16.8473C102.691 16.8473 103.008 16.493 103.008 15.9025V12.635H104.908L107.125 16.4143C107.244 16.6111 107.442 16.8867 107.878 16.8867C108.353 16.8867 108.63 16.5718 108.63 16.0994C108.63 15.9025 108.59 15.6663 108.471 15.4301L106.65 12.2807ZM107.007 9.1707C107.007 9.87932 106.531 10.9816 105.265 10.9816H103.008V7.3598H105.265C106.531 7.3598 107.007 8.46209 107.007 9.1707Z" fill="white" fill-opacity="0.75"/>
<path d="M118.089 5.70637H110.963C110.409 5.70637 110.092 6.02131 110.092 6.53309C110.092 7.04487 110.409 7.3598 110.963 7.3598H113.695V15.9813C113.695 16.5324 114.012 16.8867 114.566 16.8867C115.08 16.8867 115.397 16.5324 115.397 15.9813V7.3598H118.129C118.644 7.3598 119 7.04487 119 6.53309C118.96 6.02131 118.644 5.70637 118.089 5.70637Z" fill="white" fill-opacity="0.75"/>
<path d="M50.6275 15.627L47.2623 6.53309C47.0644 5.98195 46.6685 5.70637 46.1538 5.70637C45.6392 5.70637 45.2432 6.02131 45.0453 6.53309L41.7989 15.6663C41.7593 15.7844 41.7197 15.9025 41.7197 16.06C41.7197 16.5324 42.0364 16.8473 42.4719 16.8473C42.7095 16.8473 43.1846 16.7686 43.4221 16.0994L44.2535 13.7767H48.0937L49.1231 16.2962C49.2419 16.6505 49.5586 16.8473 49.9149 16.8473C50.39 16.8473 50.7067 16.5324 50.7067 16.06C50.7067 15.9419 50.7067 15.7844 50.6275 15.627ZM47.5395 12.1233H44.7682L46.1538 8.34399L47.5395 12.1233Z" fill="white" fill-opacity="0.75"/>
<path d="M16.5798 2.87382C14.7587 1.02355 12.3437 0 9.80993 0H9.73075C4.50486 0 0.189532 4.25168 0.110352 9.48754C0.110352 9.68438 0.110352 17.9122 0.110352 21.4552V22.7937C0.110352 23.0693 0.229122 23.3449 0.427073 23.5023C0.625023 23.6598 0.862564 23.7779 1.1001 23.7779C1.37724 23.7779 1.61478 23.6598 1.81273 23.5023L6.72191 18.6995C7.51371 18.857 8.89936 19.1326 9.69117 19.1326H9.77034C14.9567 19.1326 19.3512 14.7628 19.3907 9.60565C19.3907 7.1255 18.401 4.72409 16.5798 2.87382ZM9.77034 17.676H9.69117C9.05772 17.676 7.79084 17.4398 6.80108 17.2036C6.48436 17.1248 6.12805 17.2429 5.89051 17.4791L1.57519 21.6521C1.57519 16.6918 1.57519 9.68438 1.57519 9.52691C1.65437 5.0784 5.29666 1.45659 9.73075 1.45659H9.77034C11.9478 1.49596 14.0065 2.36204 15.5505 3.89737C17.0945 5.4327 17.9259 7.47981 17.9259 9.60565C17.8467 14.0148 14.1253 17.676 9.77034 17.676Z" fill="white" fill-opacity="0.75"/>
<path d="M11.7919 5.86616C11.6336 5.78743 11.4356 5.74806 11.2377 5.78743C11.0397 5.82679 10.8814 5.98426 10.8022 6.14173C10.723 6.2992 10.6834 6.53541 10.723 6.69288C10.7626 6.88971 10.921 7.04718 11.0793 7.12592C11.9899 7.59833 12.5441 8.54314 12.5441 9.56669C12.5441 11.102 11.2773 12.3618 9.73325 12.3618C8.18924 12.3618 6.92235 11.102 6.92235 9.56669C6.92235 8.62188 7.39743 7.71643 8.22883 7.20465C8.58514 6.96845 8.66432 6.53541 8.46637 6.1811C8.3476 6.02363 8.18924 5.90553 7.99129 5.86616C7.79333 5.82679 7.59538 5.86616 7.43702 5.9449C6.17014 6.73224 5.41793 8.07073 5.41793 9.56669C5.41793 11.9287 7.35784 13.8577 9.73325 13.8577C12.1087 13.8577 14.0486 11.9287 14.0486 9.56669C14.0486 8.03137 13.1776 6.61414 11.7919 5.86616Z" fill="white" fill-opacity="0.75"/>
<path d="M9.65126 4.80224C9.25535 4.80224 8.89904 5.11718 8.89904 5.55023V8.69962C8.89904 9.09329 9.21576 9.4476 9.65126 9.4476C10.0867 9.4476 10.4035 9.13266 10.4035 8.69962V5.55023C10.4035 5.15655 10.0472 4.80224 9.65126 4.80224Z" fill="white" fill-opacity="0.75"/>
</svg>
