<svg width="30" height="30" viewBox="0 0 30 30" fill="none" xmlns="http://www.w3.org/2000/svg">
<path d="M14.9154 0.000589661C6.73606 -0.0724121 0.018722 6.64226 3.93825e-05 14.9648C-0.0186433 23.2569 6.61224 29.9894 14.7601 30.0002C22.9105 30.0125 29.5582 23.2967 29.5611 15.008C29.5641 6.72718 22.9555 0.0721016 14.9154 0.000589661ZM14.9337 28.3908C7.67019 28.478 1.62836 22.5656 1.57524 15.0043C1.61664 7.62034 7.42805 1.66659 14.7549 1.59732C22.2624 1.64723 27.8966 7.7723 27.9768 14.8363C28.0599 22.1499 22.2848 28.3026 14.9337 28.3908Z" fill="black"/>
<path d="M27.9768 14.8363C27.8966 7.7723 22.2624 1.64723 14.7549 1.59732C7.42805 1.66659 1.61664 7.62034 1.57524 15.0043C1.62836 22.5656 7.67019 28.478 14.9337 28.3908C22.2848 28.3026 28.0599 22.1499 27.9768 14.8363Z" fill="white"/>
<path d="M14.961 27.0409C12.9612 27.0338 11.2153 26.6453 9.56649 25.8233C8.82614 25.4542 8.13232 25.0098 7.47989 24.4981C7.26046 24.326 7.24727 24.2761 7.34545 24.009C7.69199 23.0671 8.15723 22.1933 8.78951 21.4156C9.71192 20.2807 10.8746 19.5105 12.2491 19.0617C12.8535 18.8643 13.4723 18.7213 14.1038 18.6702C16.6681 18.4639 18.843 19.3012 20.594 21.2268C21.2344 21.9307 21.7384 22.727 22.0692 23.6306C22.1187 23.7655 22.1773 23.8966 22.2304 24.0299C22.3286 24.2768 22.3202 24.3264 22.104 24.491C21.8472 24.6865 21.5882 24.881 21.3204 25.0605C20.1907 25.8166 18.9694 26.3611 17.6553 26.6907C16.7154 26.9265 15.7625 27.0517 14.961 27.0409Z" fill="black"/>
<path d="M26.6594 15.0164C26.6554 15.4611 26.6088 15.9967 26.5491 16.5316C26.5293 16.707 26.4704 16.8671 26.3693 17.0105C25.7883 17.8326 25.0875 18.5212 24.2116 19.0162C23.628 19.3459 23.0042 19.5604 22.3499 19.6818C22.1657 19.7161 21.9785 19.7358 21.7861 19.7094C21.5524 19.6773 21.3488 19.5894 21.1751 19.4326C21.0839 19.3503 20.9971 19.2591 20.9242 19.1596C20.3846 18.4225 19.9545 17.6273 19.7014 16.7398C19.5823 16.323 19.4984 15.9002 19.4724 15.4678C19.4384 14.9054 19.5677 14.3814 19.8637 13.9031C20.0699 13.5698 20.2648 13.2297 20.4359 12.8763C20.8143 12.0952 21.0681 11.2751 21.1865 10.4125C21.3308 9.3584 21.2271 8.32296 20.9462 7.30392C20.8648 7.00893 20.7582 6.72102 20.6549 6.43274C20.4795 5.94333 20.2461 5.48409 19.9512 5.05688C19.7996 4.83676 19.6571 4.60993 19.5058 4.38981C19.4611 4.32463 19.4325 4.25833 19.423 4.17974C19.4102 4.07471 19.4757 4.01772 19.5754 4.02256C19.6299 4.02517 19.6864 4.04715 19.7365 4.0721C20.0325 4.22108 20.3344 4.36038 20.6205 4.52724C22.0558 5.3649 23.2925 6.43572 24.2907 7.7829C25.212 9.02579 25.8418 10.4121 26.2476 11.9075C26.5154 12.8941 26.6557 13.8983 26.6594 15.0164Z" fill="black"/>
<path d="M10.1198 4.0721C10.152 4.17601 10.144 4.27471 10.0788 4.36746C10.0403 4.42221 10.0066 4.48031 9.96632 4.5332C9.38496 5.29376 8.99152 6.1519 8.69773 7.06033C8.40906 7.95385 8.27315 8.87196 8.32884 9.81279C8.38671 10.7912 8.62812 11.725 9.02705 12.617C9.21498 13.0372 9.42305 13.4469 9.67289 13.832C10.0868 14.47 10.1715 15.1691 10.0579 15.9043C9.8795 17.056 9.42818 18.091 8.74498 19.0237C8.66036 19.1391 8.57244 19.2531 8.47683 19.3589C8.23029 19.6315 7.92038 19.7384 7.55882 19.7157C6.98552 19.6796 6.44005 19.5313 5.92024 19.2911C5.00442 18.8676 4.2051 18.2825 3.55413 17.497C3.54204 17.4824 3.52922 17.4679 3.5175 17.453C3.08633 16.8854 3.03029 16.7364 2.9757 16.0366C2.96288 15.8738 2.94823 15.711 2.93321 15.5483C2.87753 14.952 2.91013 14.3586 2.98486 13.7661C3.0845 12.9742 3.23396 12.1932 3.46035 11.4281C4.22414 8.84924 5.70887 6.80072 7.86617 5.24795C8.45339 4.82521 9.07138 4.45424 9.71355 4.12536C9.89342 4.03299 9.89415 4.03522 10.1198 4.0721Z" fill="black"/>
<path d="M3.9842 19.5749C4.07029 19.5686 4.12524 19.576 4.17506 19.6099C4.26115 19.6692 4.3487 19.7261 4.43405 19.7861C5.20187 20.3232 6.04846 20.6562 6.9694 20.7958C7.09066 20.8141 7.21301 20.8286 7.33426 20.8461C7.37163 20.8513 7.40899 20.8588 7.44489 20.8703C7.57347 20.912 7.61047 20.9891 7.55809 21.1121C7.53574 21.1646 7.5068 21.2149 7.47896 21.2648C7.14524 21.867 6.81115 22.4685 6.47779 23.0708C6.34884 23.304 6.26239 23.3885 6.01475 23.1174C5.58872 22.6514 5.20957 22.149 4.86595 21.6186C4.54871 21.1292 4.2714 20.6159 4.01937 20.0889C3.96589 19.9772 3.90508 19.8673 3.89299 19.7399C3.88493 19.6543 3.94025 19.5775 3.9842 19.5749Z" fill="black"/>
<path d="M23.3299 23.2924C23.2625 23.2913 23.2174 23.2749 23.19 23.2328C23.1588 23.1851 23.1321 23.1341 23.1094 23.0816C22.8277 22.4294 22.4928 21.8082 22.0767 21.2335C22.0382 21.1806 22.0089 21.1184 21.9862 21.0565C21.9558 20.9739 21.9932 20.9001 22.0745 20.8748C22.128 20.858 22.1844 20.8476 22.2401 20.842C23.3446 20.734 24.3531 20.3623 25.2586 19.7075C25.3125 19.6688 25.3659 19.6285 25.4235 19.5961C25.4967 19.5552 25.596 19.563 25.6363 19.6069C25.6861 19.6617 25.6945 19.7291 25.674 19.7954C25.6517 19.8684 25.6194 19.938 25.5883 20.0077C25.4282 20.366 25.2436 20.712 25.0491 21.0521C24.6395 21.7679 24.1677 22.4384 23.6178 23.0511C23.5607 23.1147 23.5021 23.1777 23.438 23.2339C23.4039 23.2637 23.3574 23.2783 23.3299 23.2924Z" fill="black"/>
<path d="M12.4513 16.625C12.4326 16.1483 12.8301 15.6976 13.3697 15.7032C13.8067 15.7076 14.2661 16.0715 14.2668 16.6254C14.2675 17.1185 13.9016 17.5495 13.3415 17.5427C12.7414 17.5353 12.429 17.0399 12.4513 16.625Z" fill="black"/>
<path d="M17.1247 16.6224C17.1405 17.0906 16.78 17.5513 16.2075 17.5428C15.7071 17.535 15.3158 17.1848 15.3114 16.6269C15.3063 16.0131 15.8118 15.7073 16.2034 15.7025C16.7145 15.6961 17.1361 16.1133 17.1247 16.6224Z" fill="black"/>
</svg>
